<svg width="47" height="34" viewBox="0 0 47 34" fill="none" xmlns="http://www.w3.org/2000/svg">
<path d="M14.4348 1.16814V33.4746H7.49457V9.06182L0 11.3457V5.97974L13.7474 1.16814H14.4348Z" fill="#272727"/>
<path d="M29.2022 28.2639H29.6457C31.2717 28.2639 32.6982 28.0791 33.9251 27.7095C35.152 27.3252 36.1794 26.7561 37.0072 26.0022C37.8498 25.2335 38.4854 24.2801 38.9141 23.1418C39.3428 21.9888 39.5571 20.6289 39.5571 19.062V12.6761C39.5571 11.5674 39.4536 10.6066 39.2467 9.79354C39.0545 8.96574 38.7663 8.27837 38.3819 7.73142C37.9976 7.18448 37.5467 6.77797 37.0294 6.51189C36.512 6.24582 35.9429 6.11278 35.322 6.11278C34.6716 6.11278 34.0951 6.28277 33.5925 6.62276C33.1047 6.96275 32.6834 7.421 32.3286 7.9975C31.9739 8.57401 31.7078 9.22443 31.5304 9.94875C31.353 10.6731 31.2643 11.4122 31.2643 12.1661C31.2643 12.9791 31.353 13.7404 31.5304 14.4499C31.7226 15.1595 31.996 15.7803 32.3508 16.3125C32.7056 16.8446 33.1564 17.2659 33.7034 17.5764C34.2503 17.872 34.8859 18.0198 35.6103 18.0198C36.3346 18.0198 36.9628 17.8868 37.495 17.6207C38.0419 17.3546 38.5002 16.9999 38.8697 16.5564C39.2541 16.1129 39.5423 15.6325 39.7345 15.1151C39.9267 14.583 40.0228 14.0582 40.0228 13.5408L42.1514 14.9599C42.1514 15.9503 41.9297 16.9259 41.4862 17.8868C41.0575 18.8476 40.4588 19.7198 39.6902 20.5032C38.9215 21.2867 38.0272 21.9149 37.0072 22.388C36.002 22.8462 34.9303 23.0753 33.7921 23.0753C32.3139 23.0753 30.9835 22.8092 29.8009 22.2771C28.6331 21.7449 27.6427 20.9984 26.8297 20.0376C26.0166 19.062 25.3958 17.909 24.9671 16.5786C24.5384 15.2482 24.3241 13.7847 24.3241 12.1883C24.3241 10.6213 24.5902 9.15051 25.1223 7.77577C25.6545 6.38625 26.4084 5.16672 27.384 4.11718C28.3596 3.06765 29.52 2.23984 30.8652 1.63377C32.2252 1.02771 33.7255 0.72467 35.3664 0.72467C36.9776 0.72467 38.4558 1.0351 39.801 1.65595C41.1462 2.26202 42.3214 3.13417 43.3266 4.27239C44.3318 5.41062 45.1078 6.79276 45.6548 8.4188C46.2165 10.0448 46.4974 11.8778 46.4974 13.9178V16.3125C46.4974 18.5002 46.2461 20.5106 45.7435 22.3436C45.2409 24.1766 44.5018 25.8026 43.5261 27.2217C42.5653 28.6408 41.3975 29.8456 40.0228 30.836C38.6628 31.8264 37.1181 32.5803 35.3885 33.0976C33.6738 33.6002 31.7965 33.8515 29.7565 33.8515H29.2022V28.2639Z" fill="#272727"/>
</svg>
