<svg width="19" height="20" viewBox="0 0 19 20" fill="none" xmlns="http://www.w3.org/2000/svg">
<path d="M15.3764 16.3533H12.7026V12.1657C12.7026 11.1672 12.6847 9.88171 11.3118 9.88171C9.91917 9.88171 9.70604 10.9698 9.70604 12.0931V16.353H7.03222V7.74172H9.59912V8.91855H9.63503C9.89192 8.4793 10.2631 8.11796 10.7092 7.87299C11.1552 7.62803 11.6593 7.50862 12.1678 7.52749C14.8779 7.52749 15.3776 9.31014 15.3776 11.6293L15.3764 16.3533ZM4.01507 6.56467C3.15807 6.56482 2.4632 5.87017 2.46307 5.01317C2.46292 4.15618 3.15751 3.46131 4.0145 3.46117C4.8715 3.46096 5.56637 4.15561 5.5665 5.01261C5.56658 5.42415 5.40317 5.81888 5.11222 6.10995C4.82127 6.40101 4.42661 6.56458 4.01507 6.56467ZM5.35206 16.3534H2.67532V7.74172H5.35199L5.35206 16.3534ZM16.7095 0.977876H1.33171C0.604911 0.969699 0.00888227 1.55191 0 2.27871V17.7207C0.00860029 18.4478 0.604558 19.0306 1.33163 19.023H16.7095C17.4382 19.032 18.0364 18.4492 18.0465 17.7207V2.27751C18.0361 1.5493 17.4378 0.967161 16.7095 0.976678" fill="#0A66C2"/>
</svg>
