<svg width="19" height="17" viewBox="0 0 19 17" fill="none" xmlns="http://www.w3.org/2000/svg">
<g clip-path="url(#clip0_1_955)">
<path d="M7.09806 14.8086L10.601 11.3057C10.9552 10.9515 11.2485 10.5586 11.4809 10.127C11.7133 9.69531 11.8738 9.24154 11.9623 8.76562C12.0619 8.27865 12.0868 7.79167 12.037 7.30469C11.9872 6.81771 11.8682 6.34733 11.6801 5.89355C11.4919 5.43978 11.2429 5.02474 10.933 4.64844C10.6231 4.27214 10.2634 3.94564 9.85392 3.66895C9.44442 3.39225 9.00724 3.18473 8.5424 3.04639C8.07756 2.90804 7.59611 2.83887 7.09806 2.83887C6.61108 2.83887 6.13241 2.90804 5.66203 3.04639C5.19165 3.18473 4.75171 3.39225 4.3422 3.66895C3.9327 3.94564 3.573 4.27214 3.2631 4.64844C2.95321 5.02474 2.70418 5.43978 2.51603 5.89355C2.32788 6.34733 2.21167 6.81771 2.1674 7.30469C2.12313 7.79167 2.14526 8.27865 2.23381 8.76562C2.33341 9.24154 2.49943 9.69531 2.73185 10.127C2.96427 10.5586 3.25203 10.9515 3.59513 11.3057L7.09806 14.8086ZM7.09806 16.8008L2.59904 12.3018C2.14526 11.859 1.77173 11.3582 1.47843 10.7993C1.18514 10.2404 0.97762 9.65104 0.855876 9.03125C0.734131 8.41146 0.703695 7.7889 0.764567 7.16357C0.825439 6.53825 0.972087 5.93229 1.20451 5.3457C1.448 4.77018 1.77173 4.23893 2.1757 3.75195C2.57967 3.26497 3.04175 2.8444 3.56193 2.49023C4.08211 2.13607 4.6438 1.86768 5.24699 1.68506C5.85018 1.50244 6.4672 1.41113 7.09806 1.41113C7.72892 1.41113 8.34595 1.50244 8.94914 1.68506C9.55233 1.86768 10.1195 2.13607 10.6508 2.49023C11.171 2.8444 11.6303 3.26497 12.0287 3.75195C12.4272 4.23893 12.7481 4.77018 12.9916 5.3457C13.2351 5.93229 13.3873 6.53825 13.4482 7.16357C13.509 7.7889 13.4786 8.41146 13.3569 9.03125C13.2351 9.65104 13.0248 10.2404 12.726 10.7993C12.4272 11.3582 12.0564 11.859 11.6137 12.3018L7.09806 16.8008ZM7.09806 9.21387C7.28621 9.21387 7.46883 9.1779 7.64592 9.10596C7.823 9.03402 7.97795 8.93164 8.11076 8.79883C8.24357 8.66602 8.34595 8.51107 8.41789 8.33398C8.48983 8.1569 8.5258 7.97428 8.5258 7.78613C8.5258 7.59798 8.48983 7.41813 8.41789 7.24658C8.34595 7.07503 8.24357 6.92285 8.11076 6.79004C7.97795 6.65723 7.823 6.55485 7.64592 6.48291C7.46883 6.41097 7.28621 6.375 7.09806 6.375C6.90991 6.375 6.73006 6.41097 6.55851 6.48291C6.38696 6.55485 6.23478 6.65723 6.10197 6.79004C5.96916 6.92285 5.86678 7.07503 5.79484 7.24658C5.7229 7.41813 5.68693 7.59798 5.68693 7.78613C5.68693 7.97428 5.7229 8.1569 5.79484 8.33398C5.86678 8.51107 5.96916 8.66602 6.10197 8.79883C6.23478 8.93164 6.38696 9.03402 6.55851 9.10596C6.73006 9.1779 6.90991 9.21387 7.09806 9.21387ZM7.09806 10.625C6.72176 10.625 6.36206 10.5531 6.01896 10.4092C5.67586 10.2653 5.3715 10.0605 5.10588 9.79492C4.84025 9.5293 4.6355 9.22217 4.49162 8.87354C4.34774 8.5249 4.2758 8.16243 4.2758 7.78613C4.2758 7.40983 4.34774 7.05013 4.49162 6.70703C4.6355 6.36393 4.84025 6.05957 5.10588 5.79395C5.3715 5.52832 5.67586 5.32357 6.01896 5.17969C6.36206 5.03581 6.72176 4.96387 7.09806 4.96387C7.47437 4.96387 7.83683 5.03581 8.18547 5.17969C8.5341 5.32357 8.84123 5.52832 9.10685 5.79395C9.37248 6.05957 9.57723 6.36393 9.72111 6.70703C9.86499 7.05013 9.93693 7.40983 9.93693 7.78613C9.93693 8.16243 9.86499 8.5249 9.72111 8.87354C9.57723 9.22217 9.37248 9.5293 9.10685 9.79492C8.84123 10.0605 8.5341 10.2653 8.18547 10.4092C7.83683 10.5531 7.47437 10.625 7.09806 10.625Z" fill="white"/>
</g>
<defs>
<clipPath id="clip0_1_955">
<rect width="17.44" height="17" fill="white" transform="matrix(1 0 0 -1 0.72998 17)"/>
</clipPath>
</defs>
</svg>
