<svg width="16" height="19" viewBox="0 0 16 19" fill="none" xmlns="http://www.w3.org/2000/svg">
<path d="M8.09546 0.390039C6.82983 0.390039 5.71655 0.57168 4.75562 0.934961C3.78296 1.29824 2.97144 1.7875 2.32104 2.40273C1.67065 3.01797 1.17554 3.72402 0.835693 4.5209C0.507568 5.30605 0.343506 6.13223 0.343506 6.99941C0.343506 7.39785 0.39624 7.81387 0.501709 8.24746C0.618896 8.68105 0.780029 9.09121 0.985107 9.47793C1.19019 9.86465 1.43921 10.2104 1.73218 10.515C2.02515 10.8314 2.35327 11.0658 2.71655 11.2182C2.92749 11.3119 3.0564 11.2738 3.10327 11.1039C3.15015 10.934 3.26733 10.515 3.45483 9.84707C3.46655 9.78848 3.46655 9.73281 3.45483 9.68008C3.44312 9.62734 3.41382 9.57754 3.36694 9.53066C2.85132 8.94473 2.56421 8.23574 2.50562 7.40371C2.44702 6.5834 2.60815 5.79238 2.98901 5.03066C3.36987 4.26894 3.9646 3.62441 4.77319 3.09707C5.58179 2.56973 6.5896 2.30606 7.79663 2.30606C9.54272 2.30606 10.7966 2.79824 11.5583 3.78262C12.3318 4.76699 12.7156 5.84805 12.7097 7.02578C12.7039 8.20352 12.3669 9.28457 11.699 10.2689C11.031 11.2533 10.1345 11.7455 9.00952 11.7455C8.4353 11.7455 7.96948 11.5521 7.61206 11.1654C7.25464 10.7787 7.14038 10.3158 7.26929 9.77676C7.43335 9.12051 7.6355 8.46719 7.87573 7.8168C8.11597 7.16641 8.23608 6.60684 8.23608 6.13809C8.23608 5.55215 8.04858 5.13027 7.67358 4.87246C7.29858 4.62637 6.8855 4.55019 6.43433 4.64394C5.98315 4.73769 5.57007 5.00137 5.19507 5.43496C4.82007 5.86855 4.63257 6.47793 4.63257 7.26309C4.63257 7.74355 4.69116 8.1332 4.80835 8.43203C4.92554 8.73086 4.98413 8.88027 4.98413 8.88027C4.98413 8.88027 4.91968 9.12051 4.79077 9.60098C4.67358 10.0932 4.53589 10.6498 4.37769 11.2709C4.21948 11.892 4.07007 12.4955 3.92944 13.0814C3.7771 13.6791 3.67163 14.0834 3.61304 14.2943C3.42554 15.0209 3.39038 15.8412 3.50757 16.7553C3.62476 17.6693 3.68921 18.1791 3.70093 18.2846C3.71265 18.3432 3.74487 18.3783 3.79761 18.39C3.85034 18.4018 3.89429 18.3842 3.92944 18.3373C3.98804 18.2553 4.27222 17.8246 4.78198 17.0453C5.29175 16.266 5.64038 15.5248 5.82788 14.8217C5.89819 14.5639 6.03882 14.0658 6.24976 13.3275C6.46069 12.5893 6.56616 12.2201 6.56616 12.2201C6.75366 12.56 7.09937 12.8529 7.60327 13.099C8.10718 13.3451 8.65796 13.4682 9.25562 13.4682C10.1345 13.4682 10.949 13.2924 11.699 12.9408C12.4373 12.5893 13.0789 12.1059 13.6238 11.4906C14.1687 10.8754 14.5935 10.1576 14.8982 9.3373C15.1912 8.50527 15.3376 7.62051 15.3376 6.68301C15.3376 5.78066 15.1501 4.94863 14.7751 4.18691C14.4119 3.41348 13.905 2.74551 13.2546 2.18301C12.6042 1.62051 11.8337 1.18106 10.9431 0.864649C10.0642 0.548243 9.11499 0.390039 8.09546 0.390039Z" fill="white"/>
</svg>
