<svg width="14" height="14" viewBox="0 0 14 14" fill="none" xmlns="http://www.w3.org/2000/svg">
<path d="M13.3828 4.81779C13.3406 4.69358 13.263 4.58444 13.1595 4.50384C13.056 4.42325 12.9312 4.37472 12.8004 4.36425L8.97554 4.06033L7.32039 0.396487C7.26767 0.278482 7.18194 0.178254 7.07352 0.107899C6.9651 0.037545 6.83864 7.10354e-05 6.7094 1.00891e-07C6.58015 -7.08336e-05 6.45365 0.0372643 6.34516 0.1075C6.23667 0.177735 6.15082 0.277869 6.09798 0.395816L4.44283 4.06033L0.617932 4.36425C0.489421 4.37444 0.366565 4.42142 0.26406 4.4996C0.161555 4.57777 0.0837433 4.68382 0.0399326 4.80506C-0.00387815 4.9263 -0.0118322 5.0576 0.017022 5.18324C0.0458761 5.30888 0.110317 5.42355 0.202634 5.51353L3.0292 8.26896L2.02954 12.5977C1.99919 12.7287 2.00891 12.8658 2.05746 12.9913C2.10601 13.1167 2.19114 13.2246 2.3018 13.3011C2.41246 13.3775 2.54354 13.419 2.67804 13.42C2.81253 13.421 2.94423 13.3816 3.05604 13.3068L6.70918 10.8714L10.3623 13.3068C10.4766 13.3827 10.6114 13.4218 10.7485 13.4188C10.8857 13.4158 11.0186 13.3708 11.1294 13.29C11.2403 13.2092 11.3237 13.0964 11.3685 12.9667C11.4134 12.8371 11.4174 12.6968 11.3801 12.5648L10.153 8.27097L13.1963 5.53231C13.3955 5.35251 13.4687 5.07207 13.3828 4.81779Z" fill="#FFBA49"/>
</svg>
