<svg width="15" height="14" viewBox="0 0 15 14" fill="none" xmlns="http://www.w3.org/2000/svg">
<path d="M9.30925 4.15632L9.43255 4.42154L9.72415 4.44405L13.5488 4.73936C13.5852 4.74219 13.6185 4.75527 13.6449 4.77521C13.6709 4.79493 13.6885 4.82002 13.6977 4.84609C13.7155 4.89761 13.7024 4.95721 13.6539 4.99982C13.6538 4.99987 13.6538 4.99991 13.6537 4.99995L10.611 7.66074L10.3702 7.87131L10.4604 8.1782L11.6871 12.3491C11.6871 12.3493 11.6872 12.3495 11.6872 12.3496C11.695 12.3769 11.6942 12.4055 11.6846 12.4326C11.6748 12.4599 11.6558 12.4862 11.6275 12.5063C11.599 12.5264 11.5633 12.5387 11.525 12.5395C11.4868 12.5403 11.4504 12.5297 11.4208 12.5106C11.4207 12.5106 11.4206 12.5105 11.4205 12.5105L7.76814 10.1444L7.49629 9.96831L7.22444 10.1444L3.5713 12.511L3.57075 12.5113C3.54184 12.5301 3.5063 12.5409 3.46885 12.5406C3.43139 12.5403 3.3961 12.529 3.36759 12.5099C3.33924 12.4909 3.31968 12.4656 3.30908 12.4389C3.29855 12.4125 3.29661 12.3843 3.30302 12.3575L3.3031 12.3571L4.30277 8.15078L4.3694 7.87038L4.16017 7.67218L1.3336 4.99465L1.33356 4.99462C1.31097 4.97322 1.29685 4.94761 1.29073 4.92169C1.28463 4.89588 1.28622 4.86895 1.29569 4.84349C1.30521 4.81788 1.32293 4.79332 1.34887 4.7741C1.37495 4.75477 1.40772 4.74214 1.44342 4.73939L1.44353 4.73938L5.26843 4.44405L5.56006 4.42154L5.68335 4.15629L7.3385 0.595378L7.33915 0.593969C7.35076 0.568787 7.37066 0.545198 7.3985 0.527685C7.42648 0.510087 7.46046 0.499981 7.49624 0.5C7.53202 0.500019 7.56599 0.510161 7.59393 0.527783C7.62175 0.545323 7.64162 0.568927 7.6532 0.594112L7.65319 0.594114L7.6541 0.59606L9.30925 4.15632Z" stroke="#FFBA49"/>
</svg>
