<svg width="18" height="18" viewBox="0 0 18 18" fill="none" xmlns="http://www.w3.org/2000/svg">
<g clip-path="url(#clip0_1_961)">
<path d="M13.48 11.7976V14.2878C13.48 14.3875 13.4634 14.4788 13.4302 14.5618C13.397 14.6448 13.3527 14.7195 13.2974 14.7859C13.231 14.8412 13.1562 14.8883 13.0732 14.927C12.9902 14.9657 12.9045 14.9906 12.8159 15.0017C12.661 15.0128 12.5226 15.0211 12.4009 15.0266C12.2791 15.0321 12.1685 15.0349 12.0688 15.0349C10.4972 15.0349 9.02523 14.7361 7.65283 14.1384C6.28044 13.5518 5.07959 12.7439 4.05029 11.7146C3.021 10.6853 2.21305 9.48446 1.62646 8.11206C1.02881 6.73967 0.72998 5.26766 0.72998 3.69604C0.72998 3.6075 0.732747 3.49959 0.738281 3.37231C0.743815 3.24504 0.752116 3.10392 0.763184 2.94897C0.774251 2.86043 0.799154 2.77466 0.837891 2.69165C0.876628 2.60864 0.923665 2.53394 0.979004 2.46753C1.04541 2.41219 1.12012 2.36792 1.20312 2.33472C1.28613 2.30151 1.37744 2.28491 1.47705 2.28491H3.96729C4.01156 2.28491 4.05583 2.29321 4.1001 2.30981C4.14437 2.32642 4.18311 2.35132 4.21631 2.38452C4.24951 2.40666 4.27441 2.43709 4.29102 2.47583C4.30762 2.51457 4.32145 2.55607 4.33252 2.60034C4.33252 2.68888 4.33805 2.76359 4.34912 2.82446C4.36019 2.88533 4.36572 2.94344 4.36572 2.99878C4.4432 3.48576 4.55387 3.9672 4.69775 4.44312C4.84163 4.91903 5.01872 5.37834 5.229 5.82104C5.26221 5.89852 5.26774 5.97599 5.24561 6.05347C5.22347 6.13094 5.18473 6.19181 5.12939 6.23608L3.60205 7.31519C3.83447 7.86857 4.1167 8.38322 4.44873 8.85913C4.76969 9.34611 5.1377 9.79712 5.55273 10.2122C5.96777 10.6272 6.41878 11.0007 6.90576 11.3328C7.38167 11.6537 7.89632 11.9304 8.44971 12.1628L9.52881 10.6521C9.55094 10.6189 9.57861 10.5912 9.61182 10.5691C9.64502 10.547 9.67822 10.5304 9.71143 10.5193C9.7557 10.5082 9.7972 10.5055 9.83594 10.511C9.87467 10.5165 9.91064 10.5248 9.94385 10.5359C10.3866 10.7462 10.8459 10.9233 11.3218 11.0671C11.7977 11.211 12.2791 11.3217 12.7661 11.3992C12.8215 11.3992 12.8823 11.4047 12.9487 11.4158C13.0151 11.4268 13.0871 11.4324 13.1646 11.4324C13.2088 11.4434 13.2503 11.4573 13.2891 11.4739C13.3278 11.4905 13.3638 11.5154 13.397 11.5486C13.4191 11.5818 13.4385 11.6205 13.4551 11.6648C13.4717 11.7091 13.48 11.7533 13.48 11.7976Z" fill="white"/>
</g>
<defs>
<clipPath id="clip0_1_961">
<rect width="17" height="17" fill="white" transform="matrix(1 0 0 -1 0.72998 17.1599)"/>
</clipPath>
</defs>
</svg>
