<svg width="18" height="19" viewBox="0 0 18 19" fill="none" xmlns="http://www.w3.org/2000/svg">
<g clip-path="url(#clip0_1_888)">
<path d="M18 18.3896V11.7979C18 10.9893 17.9414 10.2334 17.8242 9.53027C17.7188 8.83887 17.5049 8.23535 17.1826 7.71973C16.8604 7.2041 16.4062 6.7998 15.8203 6.50684C15.2344 6.21387 14.4727 6.06738 13.5352 6.06738C12.6211 6.06738 11.8652 6.27246 11.2676 6.68262C10.6699 7.09277 10.248 7.53809 10.002 8.01855H9.94922V6.36621H6.36328V18.3896H10.1074V12.4482C10.1074 11.6631 10.2363 10.9512 10.4941 10.3125C10.752 9.67383 11.3672 9.35449 12.3398 9.35449C13.2891 9.35449 13.8486 9.71191 14.0186 10.4268C14.1885 11.1416 14.2734 11.8447 14.2734 12.5361V18.3896H18ZM0.298828 6.36621H4.02539V18.3896H0.298828V6.36621ZM2.16211 0.389648C1.56445 0.389648 1.05469 0.600586 0.632812 1.02246C0.210938 1.44434 0 1.9541 0 2.55176C0 3.14941 0.210938 3.66211 0.632812 4.08984C1.05469 4.51758 1.56445 4.73145 2.16211 4.73145C2.75977 4.73145 3.26953 4.51758 3.69141 4.08984C4.11328 3.66211 4.32422 3.14941 4.32422 2.55176C4.32422 1.9541 4.11328 1.44434 3.69141 1.02246C3.26953 0.600586 2.75977 0.389648 2.16211 0.389648Z" fill="white"/>
</g>
<defs>
<clipPath id="clip0_1_888">
<rect width="18" height="18" fill="white" transform="matrix(1 0 0 -1 0 18.3896)"/>
</clipPath>
</defs>
</svg>
