<svg width="24" height="19" viewBox="0 0 24 19" fill="none" xmlns="http://www.w3.org/2000/svg">
<path d="M23.0164 2.5166C22.6179 2.7041 22.199 2.85645 21.7595 2.97363C21.3201 3.09082 20.8718 3.17871 20.4148 3.2373C20.8835 2.95605 21.2908 2.60156 21.6365 2.17383C21.9822 1.74609 22.2371 1.2627 22.4011 0.723633C21.9675 0.993164 21.5105 1.21875 21.03 1.40039C20.5496 1.58203 20.0515 1.72559 19.5359 1.83105C19.1257 1.38574 18.6365 1.03418 18.0681 0.776367C17.4998 0.518555 16.8933 0.389648 16.2488 0.389648C15.6277 0.389648 15.0417 0.506836 14.491 0.741211C13.9402 0.987305 13.4597 1.31543 13.0496 1.72559C12.6394 2.13574 12.3171 2.61621 12.0828 3.16699C11.8484 3.71777 11.7312 4.30371 11.7312 4.9248C11.7312 5.1123 11.74 5.29102 11.7576 5.46094C11.7751 5.63086 11.8015 5.79785 11.8367 5.96191C10.8992 5.91504 9.99097 5.77441 9.11206 5.54004C8.23315 5.29395 7.39819 4.96582 6.60718 4.55566C5.81616 4.14551 5.07495 3.65918 4.38354 3.09668C3.70386 2.53418 3.08276 1.90723 2.52026 1.21582C2.32104 1.55566 2.1687 1.91895 2.06323 2.30566C1.95776 2.69238 1.90503 3.09668 1.90503 3.51855C1.90503 4.30371 2.0896 5.02734 2.45874 5.68945C2.82788 6.35156 3.31128 6.8877 3.90894 7.29785C3.54565 7.28613 3.18823 7.23047 2.83667 7.13086C2.48511 7.03125 2.16284 6.89941 1.86987 6.73535C1.86987 6.73535 1.86987 6.74121 1.86987 6.75293C1.86987 6.76465 1.86987 6.77637 1.86987 6.78809C1.86987 7.33887 1.96362 7.86035 2.15112 8.35254C2.3269 8.84473 2.57886 9.28711 2.90698 9.67969C3.23511 10.0723 3.61597 10.4033 4.04956 10.6729C4.49487 10.9424 4.97534 11.1299 5.49097 11.2354C5.30347 11.2939 5.11011 11.335 4.91089 11.3584C4.71167 11.3818 4.50659 11.3936 4.29565 11.3936C4.15503 11.3936 4.01147 11.3877 3.86499 11.376C3.71851 11.3643 3.57495 11.3408 3.43433 11.3057C3.58667 11.7627 3.79761 12.1787 4.06714 12.5537C4.34839 12.9404 4.67065 13.2744 5.03394 13.5557C5.39722 13.8369 5.80151 14.0537 6.24683 14.2061C6.69214 14.3701 7.16089 14.458 7.65308 14.4697C7.26636 14.7744 6.8562 15.0439 6.42261 15.2783C5.98901 15.5244 5.53784 15.7295 5.06909 15.8936C4.60034 16.0576 4.11401 16.1865 3.61011 16.2803C3.1062 16.3623 2.59058 16.4033 2.06323 16.4033C1.87573 16.4033 1.69116 16.4004 1.50952 16.3945C1.32788 16.3887 1.14917 16.374 0.973389 16.3506C1.47729 16.6787 2.00464 16.9658 2.55542 17.2119C3.09448 17.4697 3.65698 17.6865 4.24292 17.8623C4.82886 18.0381 5.42651 18.167 6.03589 18.249C6.65698 18.3428 7.28394 18.3896 7.91675 18.3896C10.0027 18.3896 11.8425 17.9971 13.4363 17.2119C15.0417 16.4268 16.3865 15.416 17.4705 14.1797C18.5544 12.9434 19.3777 11.5576 19.9402 10.0225C20.5027 8.4873 20.7839 6.96973 20.7839 5.46973C20.7839 5.36426 20.781 5.26465 20.7751 5.1709C20.7693 5.07715 20.7664 4.97754 20.7664 4.87207C21.2117 4.55566 21.6248 4.19824 22.0056 3.7998C22.3865 3.40137 22.7234 2.97363 23.0164 2.5166Z" fill="white"/>
</svg>
